<!-- icon666.com - MILLIONS vector ICONS FREE --><svg enable-background="new 0 0 32 32" viewBox="0 0 32 32" xmlns="http://www.w3.org/2000/svg"><g id="Cake"><path d="m7.512 25.501 1.927 2.109 14.876-.034 1.933-2.075z" fill="#f6adb6"></path><path d="m23.812 19.239c-.645-.032-1.267-.348-1.72-.916l-1.937-2.427c-.298-.338-.519.001-.519.001l-1.894 2.411c-.804 1.027-1.852.936-1.852.936-.688 0-1.349-.322-1.816-.888l-2.044-2.466c-.219-.328-.433.019-.433.019l-1.571 2.285c-.172.251-.384.443-.61.605v4.701h14.4z" fill="#f77289"></path><path d="m9.417 13.292v2.267l.534-.783c.43-.624 1.074-1 1.769-1.03.726-.038 1.37.286 1.852.869l2.044 2.466s.307.439.557-.008l1.893-2.41c.463-.589 1.128-.928 1.825-.93h.007c.694 0 1.358.334 1.823.917l1.749 2.179s.297.359.359-.094l-.024-3.64c0-.841-.684-1.524-1.523-1.524h-11.616c-.957.438-1.249 1.721-1.249 1.721z" fill="#f6adb6"></path><path d="m14.028 5.208c-.341 1.497 1.682 3.145 2.507 3.724 1.183-.859 2.932-2.435 2.439-3.955-.075-.119-.344-.496-.753-.575-.52-.102-1.128.286-1.569.657-.674.566-1.306 0-1.306 0-.208-.172-.461-.354-.726-.486-.378.191-.592.635-.592.635z" fill="#f77289"></path><g fill="#fff"><path d="m7.512 25.501 1.927 2.109 6.562-.014v-2.095z" opacity=".3"></path><path d="m15.892 19.244c-.688 0-1.349-.322-1.816-.888l-2.044-2.466c-.219-.328-.433.019-.433.019l-1.571 2.285c-.172.251-.384.443-.61.605v4.701h6.584v-4.257c-.064.003-.11.001-.11.001z" opacity=".3"></path><path d="m9.417 13.292v2.267l.534-.783c.43-.624 1.074-1 1.769-1.03.726-.038 1.37.286 1.852.869l2.044 2.466s.186.261.386.168v-5.679h-5.335c-.958.439-1.25 1.722-1.25 1.722z" opacity=".3"></path><path d="m15.347 5.059c-.208-.172-.461-.354-.726-.486-.379.191-.593.636-.593.636-.28 1.233 1.036 2.56 1.973 3.315v-3.219c-.379-.006-.654-.246-.654-.246z" opacity=".3"></path></g><path d="m20.78 4.108c-.07-.14-.73-1.37-2.141-1.663-.851-.179-1.736.049-2.641.633-.905-.584-1.793-.812-2.641-.633-1.41.293-2.07 1.523-2.141 1.663 0 0-1.37 2.563 1.878 5.462h-3.374c-1.942 0-3.523 1.581-3.523 3.524l.015 10.406h-2.757c-.398 0-.758.236-.917.601s-.086.79.186 1.081l3.832 4.114c.188.203.454.318.731.318h.002l17.465-.04c.277-.001.541-.116.729-.318l3.793-4.074c.271-.292.345-.716.186-1.081-.159-.364-.519-.601-.917-.601h-2.728l-.014-10.407c0-1.942-1.581-3.523-3.523-3.523h-3.378c3.215-2.852 1.878-5.462 1.878-5.462zm-4.128.951c.441-.371 1.05-.759 1.569-.657.409.079.678.456.753.575.576 1.779-1.92 3.637-2.982 4.331-1.289-.834-3.5-2.677-2.969-4.331.076-.117.345-.49.742-.573.525-.114 1.149.296 1.582.655 0 0 .632.566 1.305 0zm7.176 11.675c-.063.453-.359.094-.359.094l-1.749-2.179c-.465-.583-1.129-.917-1.823-.917-.002 0-.005 0-.007 0-.697.002-1.362.341-1.825.93l-1.893 2.41c-.25.447-.557.008-.557.008l-2.044-2.466c-.481-.583-1.126-.907-1.852-.869-.694.03-1.339.406-1.769 1.03l-1.357 1.99s-.266.359-.391.063l-.007-3.734c0-.84.684-1.523 1.523-1.523h12.562c.84 0 1.523.684 1.523 1.524zm-6.085 1.575 1.894-2.411s.221-.339.519-.001l1.937 2.427c.453.568 1.075.884 1.72.916l.006 4.262h-15.608l-.006-4.269c.697-.021 1.371-.382 1.822-1.038l1.571-2.285s.214-.347.433-.019l2.044 2.466c.468.565 1.129.888 1.816.888.001-.001 1.048.091 1.852-.936zm8.505 7.192-1.933 2.075-16.593.038-1.969-2.113z" fill="#592e6f"></path></g></svg>